24  3  0
   1      14     3    19
   2      14    19    13
   3      19     3    21
   4      19    21     9
   5      13    19    18
   6      17    11    12
   7       2    10    15
   8      11    15    10
   9      12    18    17
  10      12    13    18
  11      19     9    18
  12       9     8    18
  13       9    21     4
  14       8    17    18
  15       8     7    17
  16      17     7     6
  17      16    15    11
  18      15    16     5
  19      20    15     5
  20      15    20     2
  21       6     5    16
  22       5     1    20
  23      16    17     6
  24      17    16    11
# Generated by triangle.exe p1478022378162.node
