21  2  0  1
   1    0  0    1
   2    -176  0    1
   3    -176  -180    1
   4    0  -180    1
   5    0  -31.199999999999999    1
   6    0  -61.200000000000003    1
   7    0  -91.200000000000003    1
   8    0  -121.2    1
   9    0  -151.19999999999999    1
  10    -176  -31.199999999999999    1
  11    -176  -61.200000000000003    1
  12    -176  -91.200000000000003    1
  13    -176  -121.2    1
  14    -176  -151.19999999999999    1
  15    -88  -31.199999999999999    0
  16    -88  -61.200000000000003    0
  17    -88  -91.200000000000003    0
  18    -88  -121.2    0
  19    -88  -151.19999999999999    0
  20    -88  0    1
  21    -88  -180    1
# Generated by triangle.exe p1479842644214.node
